<svg version="1.1" preserveAspectRatio="none" xmlns="http://www.w3.org/2000/svg" width="500" height="500" viewBox="0 0 500 500"><rect width="100%" height="100%" fill="#F1F1F1" fill-opacity="1"/><svg viewBox="82.4318 147.5613 389.6724 235.2583" width="333" height="201.04327096299352" x="83.5px" y="149.4784px" xmlns="http://www.w3.org/2000/svg" xmlns:xlink="http://www.w3.org/1999/xlink" preserveAspectRatio="none"><defs></defs><style>.companyName {fill:#3B3B6B;fill-opacity:1;}.icon1 {fill:#D24848;fill-opacity:1;}.icon2 {fill:#CCAF60;fill-opacity:1;}.icon3 {fill:#797468;fill-opacity:1;}.icon3-str {stroke:#797468;stroke-opacity:1;}.text {fill:#D24848;fill-opacity:1;}</style><g opacity="1" transform="rotate(0 82.4318 365.7196)">
<svg width="389.6724" height="17.1" x="82.4318" y="365.7196" version="1.1" preserveAspectRatio="none" viewBox="1.64 -28.32 778.36 34.16">
  <g transform="matrix(1 0 0 1 0 0)" class="text"><path id="id-6izo4zJp25" d="M12.36 0.32Q9.20 0.32 6.26-0.66Q3.32-1.64 1.64-3.20L1.64-3.20L3.12-6.32Q4.72-4.88 7.22-3.98Q9.72-3.08 12.36-3.08L12.36-3.08Q15.84-3.08 17.56-4.26Q19.28-5.44 19.28-7.40L19.28-7.40Q19.28-8.84 18.34-9.74Q17.40-10.64 16.02-11.12Q14.64-11.60 12.12-12.20L12.12-12.20Q8.96-12.96 7.02-13.72Q5.08-14.48 3.70-16.06Q2.32-17.64 2.32-20.32L2.32-20.32Q2.32-22.56 3.50-24.36Q4.68-26.16 7.08-27.24Q9.48-28.32 13.04-28.32L13.04-28.32Q15.52-28.32 17.92-27.68Q20.32-27.04 22.04-25.84L22.04-25.84L20.72-22.64Q18.96-23.76 16.96-24.34Q14.96-24.92 13.04-24.92L13.04-24.92Q9.64-24.92 7.94-23.68Q6.24-22.44 6.24-20.48L6.24-20.48Q6.24-19.04 7.20-18.14Q8.16-17.24 9.58-16.74Q11-16.24 13.44-15.68L13.44-15.68Q16.60-14.92 18.52-14.16Q20.44-13.40 21.82-11.84Q23.20-10.28 23.20-7.64L23.20-7.64Q23.20-5.44 22-3.62Q20.80-1.80 18.36-0.74Q15.92 0.32 12.36 0.32L12.36 0.32Z M55.96 0L52.88-7L38-7L34.92 0L30.80 0L43.48-28L47.44-28L60.16 0L55.96 0ZM39.40-10.20L51.48-10.20L45.44-23.92L39.40-10.20Z M89.16-14.52Q91.60-13.84 93-12.06Q94.40-10.28 94.40-7.56L94.40-7.56Q94.40-3.92 91.66-1.96Q88.92 0 83.68 0L83.68 0L70.32 0L70.32-28L82.88-28Q87.68-28 90.30-26.08Q92.92-24.16 92.92-20.76L92.92-20.76Q92.92-18.56 91.90-16.96Q90.88-15.36 89.16-14.52L89.16-14.52ZM82.52-24.76L74.32-24.76L74.32-15.80L82.52-15.80Q85.60-15.80 87.26-16.94Q88.92-18.08 88.92-20.28L88.92-20.28Q88.92-22.48 87.26-23.62Q85.60-24.76 82.52-24.76L82.52-24.76ZM83.52-3.24Q86.92-3.24 88.64-4.36Q90.36-5.48 90.36-7.88L90.36-7.88Q90.36-12.56 83.52-12.56L83.52-12.56L74.32-12.56L74.32-3.24L83.52-3.24Z M119.24 0.32Q115 0.32 111.60-1.54Q108.20-3.40 106.26-6.68Q104.32-9.96 104.32-14L104.32-14Q104.32-18.04 106.26-21.32Q108.20-24.60 111.60-26.46Q115-28.32 119.24-28.32L119.24-28.32Q123.44-28.32 126.84-26.46Q130.24-24.60 132.16-21.34Q134.08-18.08 134.08-14L134.08-14Q134.08-9.92 132.16-6.66Q130.24-3.40 126.84-1.54Q123.44 0.32 119.24 0.32L119.24 0.32ZM119.24-3.24Q122.32-3.24 124.78-4.64Q127.24-6.04 128.66-8.50Q130.08-10.96 130.08-14L130.08-14Q130.08-17.04 128.66-19.50Q127.24-21.96 124.78-23.36Q122.32-24.76 119.24-24.76L119.24-24.76Q116.16-24.76 113.66-23.36Q111.16-21.96 109.74-19.50Q108.32-17.04 108.32-14L108.32-14Q108.32-10.96 109.74-8.50Q111.16-6.04 113.66-4.64Q116.16-3.24 119.24-3.24L119.24-3.24Z M169.28 0L164.92 0L158.88-8.60Q157.76-8.52 157.12-8.52L157.12-8.52L150.20-8.52L150.20 0L146.20 0L146.20-28L157.12-28Q162.56-28 165.68-25.40Q168.80-22.80 168.80-18.24L168.80-18.24Q168.80-15 167.20-12.72Q165.60-10.44 162.64-9.40L162.64-9.40L169.28 0ZM157-11.92Q160.80-11.92 162.80-13.56Q164.80-15.20 164.80-18.24L164.80-18.24Q164.80-21.28 162.80-22.90Q160.80-24.52 157-24.52L157-24.52L150.20-24.52L150.20-11.92L157-11.92Z M225 0.28L226.88 2.56Q225.52 4.16 223.72 5Q221.92 5.84 219.84 5.84L219.84 5.84Q217.20 5.84 214.90 4.58Q212.60 3.32 209.64 0.28L209.64 0.28Q205.68 0.08 202.50-1.84Q199.32-3.76 197.54-6.94Q195.76-10.12 195.76-14L195.76-14Q195.76-18.04 197.70-21.32Q199.64-24.60 203.04-26.46Q206.44-28.32 210.68-28.32L210.68-28.32Q214.88-28.32 218.28-26.46Q221.68-24.60 223.60-21.34Q225.52-18.08 225.52-14L225.52-14Q225.52-10.56 224.14-7.68Q222.76-4.80 220.26-2.84Q217.76-0.88 214.52-0.12L214.52-0.12Q215.92 1.36 217.22 2.02Q218.52 2.68 219.88 2.68L219.88 2.68Q222.84 2.68 225 0.28L225 0.28ZM199.76-14Q199.76-10.96 201.18-8.50Q202.60-6.04 205.10-4.64Q207.60-3.24 210.68-3.24L210.68-3.24Q213.72-3.24 216.20-4.64Q218.68-6.04 220.10-8.50Q221.52-10.96 221.52-14L221.52-14Q221.52-17.04 220.10-19.50Q218.68-21.96 216.20-23.36Q213.72-24.76 210.68-24.76L210.68-24.76Q207.60-24.76 205.10-23.36Q202.60-21.96 201.18-19.50Q199.76-17.04 199.76-14L199.76-14Z M249.24 0.32Q243.64 0.32 240.52-2.88Q237.40-6.08 237.40-12.08L237.40-12.08L237.40-28L241.40-28L241.40-12.24Q241.40-3.24 249.28-3.24L249.28-3.24Q253.12-3.24 255.16-5.46Q257.20-7.68 257.20-12.24L257.20-12.24L257.20-28L261.08-28L261.08-12.08Q261.08-6.04 257.96-2.86Q254.84 0.32 249.24 0.32L249.24 0.32Z M279.28-3.48L295.60-3.48L295.60 0L275.28 0L275.28-28L295.04-28L295.04-24.52L279.28-24.52L279.28-15.92L293.32-15.92L293.32-12.52L279.28-12.52L279.28-3.48Z M330.40 0L330.40-24.52L320.80-24.52L320.80-28L343.96-28L343.96-24.52L334.36-24.52L334.36 0L330.40 0Z M358.32-3.48L374.64-3.48L374.64 0L354.32 0L354.32-28L374.08-28L374.08-24.52L358.32-24.52L358.32-15.92L372.36-15.92L372.36-12.52L358.32-12.52L358.32-3.48Z M423.96-28L427.96-28L427.96 0L423.96 0L423.96-12.48L407.88-12.48L407.88 0L403.88 0L403.88-28L407.88-28L407.88-15.96L423.96-15.96L423.96-28Z M463.28 0L460.20-7L445.32-7L442.24 0L438.12 0L450.80-28L454.76-28L467.48 0L463.28 0ZM446.72-10.20L458.80-10.20L452.76-23.92L446.72-10.20Z M489.76 0.32Q485.56 0.32 482.18-1.54Q478.80-3.40 476.88-6.66Q474.96-9.92 474.96-14L474.96-14Q474.96-18.08 476.88-21.34Q478.80-24.60 482.20-26.46Q485.60-28.32 489.80-28.32L489.80-28.32Q493.08-28.32 495.80-27.22Q498.52-26.12 500.44-23.96L500.44-23.96L497.84-21.44Q494.68-24.76 489.96-24.76L489.96-24.76Q486.84-24.76 484.32-23.36Q481.80-21.96 480.38-19.50Q478.96-17.04 478.96-14L478.96-14Q478.96-10.96 480.38-8.50Q481.80-6.04 484.32-4.64Q486.84-3.24 489.96-3.24L489.96-3.24Q494.64-3.24 497.84-6.60L497.84-6.60L500.44-4.08Q498.52-1.92 495.78-0.80Q493.04 0.32 489.76 0.32L489.76 0.32Z M516.16-3.48L532.48-3.48L532.48 0L512.16 0L512.16-28L531.92-28L531.92-24.52L516.16-24.52L516.16-15.92L530.20-15.92L530.20-12.52L516.16-12.52L516.16-3.48Z M569.88 0.32Q566.72 0.32 563.78-0.66Q560.84-1.64 559.16-3.20L559.16-3.20L560.64-6.32Q562.24-4.88 564.74-3.98Q567.24-3.08 569.88-3.08L569.88-3.08Q573.36-3.08 575.08-4.26Q576.80-5.44 576.80-7.40L576.80-7.40Q576.80-8.84 575.86-9.74Q574.92-10.64 573.54-11.12Q572.16-11.60 569.64-12.20L569.64-12.20Q566.48-12.96 564.54-13.72Q562.60-14.48 561.22-16.06Q559.84-17.64 559.84-20.32L559.84-20.32Q559.84-22.56 561.02-24.36Q562.20-26.16 564.60-27.24Q567.00-28.32 570.56-28.32L570.56-28.32Q573.04-28.32 575.44-27.68Q577.84-27.04 579.56-25.84L579.56-25.84L578.24-22.64Q576.48-23.76 574.48-24.34Q572.48-24.92 570.56-24.92L570.56-24.92Q567.16-24.92 565.46-23.68Q563.76-22.44 563.76-20.48L563.76-20.48Q563.76-19.04 564.72-18.14Q565.68-17.24 567.10-16.74Q568.52-16.24 570.96-15.68L570.96-15.68Q574.12-14.92 576.04-14.16Q577.96-13.40 579.34-11.84Q580.72-10.28 580.72-7.64L580.72-7.64Q580.72-5.44 579.52-3.62Q578.32-1.80 575.88-0.74Q573.44 0.32 569.88 0.32L569.88 0.32Z M605.20 0.32Q600.96 0.32 597.56-1.54Q594.16-3.40 592.22-6.68Q590.28-9.96 590.28-14L590.28-14Q590.28-18.04 592.22-21.32Q594.16-24.60 597.56-26.46Q600.96-28.32 605.20-28.32L605.20-28.32Q609.40-28.32 612.80-26.46Q616.20-24.60 618.12-21.34Q620.04-18.08 620.04-14L620.04-14Q620.04-9.92 618.12-6.66Q616.20-3.40 612.80-1.54Q609.40 0.32 605.20 0.32L605.20 0.32ZM605.20-3.24Q608.28-3.24 610.74-4.64Q613.20-6.04 614.62-8.50Q616.04-10.96 616.04-14L616.04-14Q616.04-17.04 614.62-19.50Q613.20-21.96 610.74-23.36Q608.28-24.76 605.20-24.76L605.20-24.76Q602.12-24.76 599.62-23.36Q597.12-21.96 595.70-19.50Q594.28-17.04 594.28-14L594.28-14Q594.28-10.96 595.70-8.50Q597.12-6.04 599.62-4.64Q602.12-3.24 605.20-3.24L605.20-3.24Z M652.24-28L656.24-28L656.24 0L652.96 0L636.16-20.88L636.16 0L632.16 0L632.16-28L635.44-28L652.24-7.12L652.24-28Z M693.72 0L689.36 0L683.32-8.60Q682.20-8.52 681.56-8.52L681.56-8.52L674.64-8.52L674.64 0L670.64 0L670.64-28L681.56-28Q687.00-28 690.12-25.40Q693.24-22.80 693.24-18.24L693.24-18.24Q693.24-15 691.64-12.72Q690.04-10.44 687.08-9.40L687.08-9.40L693.72 0ZM681.44-11.92Q685.24-11.92 687.24-13.56Q689.24-15.20 689.24-18.24L689.24-18.24Q689.24-21.28 687.24-22.90Q685.24-24.52 681.44-24.52L681.44-24.52L674.64-24.52L674.64-11.92L681.44-11.92Z M709.72-3.48L726.04-3.48L726.04 0L705.72 0L705.72-28L725.48-28L725.48-24.52L709.72-24.52L709.72-15.92L723.76-15.92L723.76-12.52L709.72-12.52L709.72-3.48Z M738.52 0L738.52-28L742.52-28L742.52 0L738.52 0Z M780.00 0L775.64 0L769.60-8.60Q768.48-8.52 767.84-8.52L767.84-8.52L760.92-8.52L760.92 0L756.92 0L756.92-28L767.84-28Q773.28-28 776.40-25.40Q779.52-22.80 779.52-18.24L779.52-18.24Q779.52-15 777.92-12.72Q776.32-10.44 773.36-9.40L773.36-9.40L780.00 0ZM767.72-11.92Q771.52-11.92 773.52-13.56Q775.52-15.20 775.52-18.24L775.52-18.24Q775.52-21.28 773.52-22.90Q771.52-24.52 767.72-24.52L767.72-24.52L760.92-24.52L760.92-11.92L767.72-11.92Z"/></g>
</svg>
</g><g opacity="1" transform="rotate(0 86.476 309.7196)">
<svg width="381.5839" height="38" x="86.476" y="309.7196" version="1.1" preserveAspectRatio="none" viewBox="3.76 -28.4 289.20000000000005 28.8">
  <g transform="matrix(1 0 0 1 0 0)" class="companyName"><path id="id-D6z1nYkh11" d="M3.76 0L3.76-28L8.96-28L8.96-4.40L23.60-4.40L23.60 0L3.76 0Z M48.88 0L46.08-6.48L32.08-6.48L29.32 0L23.96 0L36.56-28L41.68-28L54.32 0L48.88 0ZM33.84-10.56L44.36-10.56L39.08-22.80L33.84-10.56Z M70.44 0.40Q66.20 0.40 62.78-1.46Q59.36-3.32 57.42-6.60Q55.48-9.88 55.48-14L55.48-14Q55.48-18.12 57.44-21.40Q59.40-24.68 62.82-26.54Q66.24-28.40 70.48-28.40L70.48-28.40Q73.92-28.40 76.76-27.20Q79.60-26 81.56-23.72L81.56-23.72L78.20-20.56Q75.16-23.84 70.72-23.84L70.72-23.84Q67.84-23.84 65.56-22.58Q63.28-21.32 62.00-19.08Q60.72-16.84 60.72-14L60.72-14Q60.72-11.16 62.00-8.92Q63.28-6.68 65.56-5.42Q67.84-4.16 70.72-4.16L70.72-4.16Q75.16-4.16 78.20-7.48L78.20-7.48L81.56-4.28Q79.60-2 76.74-0.80Q73.88 0.40 70.44 0.40L70.44 0.40Z M91.92 0L91.92-23.60L82.64-23.60L82.64-28L106.40-28L106.40-23.60L97.12-23.60L97.12 0L91.92 0Z M115.52-4.36L131.32-4.36L131.32 0L110.32 0L110.32-28L130.76-28L130.76-23.64L115.52-23.64L115.52-16.36L129.04-16.36L129.04-12.08L115.52-12.08L115.52-4.36Z M150.08 0.40Q145.80 0.40 142.36-1.46Q138.92-3.32 136.96-6.62Q135-9.92 135-14L135-14Q135-18.08 136.96-21.38Q138.92-24.68 142.36-26.54Q145.80-28.40 150.08-28.40L150.08-28.40Q154.36-28.40 157.80-26.54Q161.24-24.68 163.20-21.40Q165.16-18.12 165.16-14L165.16-14Q165.16-9.88 163.20-6.60Q161.24-3.32 157.80-1.46Q154.36 0.40 150.08 0.40L150.08 0.40ZM150.08-4.16Q152.88-4.16 155.12-5.42Q157.36-6.68 158.64-8.94Q159.92-11.20 159.92-14L159.92-14Q159.92-16.80 158.64-19.06Q157.36-21.32 155.12-22.58Q152.88-23.84 150.08-23.84L150.08-23.84Q147.28-23.84 145.04-22.58Q142.80-21.32 141.52-19.06Q140.24-16.80 140.24-14L140.24-14Q140.24-11.20 141.52-8.94Q142.80-6.68 145.04-5.42Q147.28-4.16 150.08-4.16L150.08-4.16Z M179.36 0.40Q176.12 0.40 173.10-0.52Q170.08-1.44 168.32-2.96L168.32-2.96L170.12-7Q171.84-5.64 174.34-4.78Q176.84-3.92 179.36-3.92L179.36-3.92Q182.48-3.92 184.02-4.92Q185.56-5.92 185.56-7.56L185.56-7.56Q185.56-8.76 184.70-9.54Q183.84-10.32 182.52-10.76Q181.20-11.20 178.92-11.76L178.92-11.76Q175.72-12.52 173.74-13.28Q171.76-14.04 170.34-15.66Q168.92-17.28 168.92-20.04L168.92-20.04Q168.92-22.36 170.18-24.26Q171.44-26.16 173.98-27.28Q176.52-28.40 180.20-28.40L180.20-28.40Q182.76-28.40 185.24-27.76Q187.72-27.12 189.52-25.92L189.52-25.92L187.88-21.88Q186.04-22.96 184.04-23.52Q182.04-24.08 180.16-24.08L180.16-24.08Q177.08-24.08 175.58-23.04Q174.08-22 174.08-20.28L174.08-20.28Q174.08-19.08 174.94-18.32Q175.80-17.56 177.12-17.12Q178.44-16.68 180.72-16.12L180.72-16.12Q183.84-15.40 185.84-14.62Q187.84-13.84 189.26-12.24Q190.68-10.64 190.68-7.92L190.68-7.92Q190.68-5.60 189.42-3.72Q188.16-1.84 185.60-0.72Q183.04 0.40 179.36 0.40L179.36 0.40Z M219.84 0.40Q215.60 0.40 212.18-1.46Q208.76-3.32 206.82-6.60Q204.88-9.88 204.88-14L204.88-14Q204.88-18.12 206.84-21.40Q208.80-24.68 212.22-26.54Q215.64-28.40 219.88-28.40L219.88-28.40Q223.32-28.40 226.16-27.20Q229-26 230.96-23.72L230.96-23.72L227.60-20.56Q224.56-23.84 220.12-23.84L220.12-23.84Q217.24-23.84 214.96-22.58Q212.68-21.32 211.40-19.08Q210.12-16.84 210.12-14L210.12-14Q210.12-11.16 211.40-8.92Q212.68-6.68 214.96-5.42Q217.24-4.16 220.12-4.16L220.12-4.16Q224.56-4.16 227.60-7.48L227.60-7.48L230.96-4.28Q229-2 226.14-0.80Q223.28 0.40 219.84 0.40L219.84 0.40Z M248.44 0.40Q244.16 0.40 240.72-1.46Q237.28-3.32 235.32-6.62Q233.36-9.92 233.36-14L233.36-14Q233.36-18.08 235.32-21.38Q237.28-24.68 240.72-26.54Q244.16-28.40 248.44-28.40L248.44-28.40Q252.72-28.40 256.16-26.54Q259.60-24.68 261.56-21.40Q263.52-18.12 263.52-14L263.52-14Q263.52-9.88 261.56-6.60Q259.60-3.32 256.16-1.46Q252.72 0.40 248.44 0.40L248.44 0.40ZM248.44-4.16Q251.24-4.16 253.48-5.42Q255.72-6.68 257-8.94Q258.28-11.20 258.28-14L258.28-14Q258.28-16.80 257-19.06Q255.72-21.32 253.48-22.58Q251.24-23.84 248.44-23.84L248.44-23.84Q245.64-23.84 243.40-22.58Q241.16-21.32 239.88-19.06Q238.60-16.80 238.60-14L238.60-14Q238.60-11.20 239.88-8.94Q241.16-6.68 243.40-5.42Q245.64-4.16 248.44-4.16L248.44-4.16Z M292.96 0L287.36 0L281.64-8.20Q281.28-8.16 280.56-8.16L280.56-8.16L274.24-8.16L274.24 0L269.04 0L269.04-28L280.56-28Q284.20-28 286.90-26.80Q289.60-25.60 291.04-23.36Q292.48-21.12 292.48-18.04L292.48-18.04Q292.48-14.88 290.94-12.60Q289.40-10.32 286.52-9.20L286.52-9.20L292.96 0ZM287.24-18.04Q287.24-20.72 285.48-22.16Q283.72-23.60 280.32-23.60L280.32-23.60L274.24-23.60L274.24-12.44L280.32-12.44Q283.72-12.44 285.48-13.90Q287.24-15.36 287.24-18.04L287.24-18.04Z"/></g>
</svg>
</g><g opacity="1" transform="rotate(0 181.872 147.5613)">
<svg width="190.792" height="132.1583" x="181.872" y="147.5613" version="1.1" preserveAspectRatio="none" viewBox="3.5 9.800000190734863 41.000003814697266 28.400001525878906">
  <g transform="matrix(1 0 0 1 0 0)" class="icon1"><g data-name="Dairy Products"><path d="M27.59,29.621a3,3,0,1,1-2.99-3A3,3,0,0,1,27.59,29.621ZM16.379,35.1a.5.5,0,1,0,.5.5A.5.5,0,0,0,16.379,35.1ZM12.336,24.459a.5.5,0,1,0,.5.5A.5.5,0,0,0,12.336,24.459Zm-.3,10.7a1.289,1.289,0,1,1-1.289-1.289A1.29,1.29,0,0,1,12.034,35.161Zm-1,0a.289.289,0,1,0-.289.288A.289.289,0,0,0,11.034,35.161Zm1.634-16.592a.5.5,0,0,0-.637.307,3.459,3.459,0,0,0-.2,1.149v3.023a.5.5,0,0,0,1,0V20.025a2.485,2.485,0,0,1,.139-.819A.5.5,0,0,0,12.668,18.569ZM7.792,15.1a.5.5,0,0,0,.5-.5v-.955a.5.5,0,0,0-1,0V14.6A.5.5,0,0,0,7.792,15.1Zm0-3.343a.5.5,0,0,0,.5-.5V10.3a.5.5,0,0,0-1,0v.956A.5.5,0,0,0,7.792,11.753ZM6.3,12.941h.31a.5.5,0,0,0,0-1H6.3a.5.5,0,0,0,0,1Zm2.689,0H9.3a.5.5,0,0,0,0-1H8.987a.5.5,0,0,0,0,1Zm28.259,4.785a.5.5,0,0,0,.5-.5v-.451a.5.5,0,0,0-1,0v.451A.5.5,0,0,0,37.246,17.726Zm1.929.516a.493.493,0,0,0,.25.068.5.5,0,0,0,.432-.25l.226-.39a.5.5,0,0,0-.865-.5l-.226.39A.5.5,0,0,0,39.175,18.242ZM41.02,19.9a.5.5,0,0,0,.25-.067l.39-.225a.5.5,0,1,0-.5-.866l-.39.225a.5.5,0,0,0,.25.933Zm.084,1.679a.5.5,0,0,0,.5.5h.45a.5.5,0,0,0,0-1H41.6A.5.5,0,0,0,41.1,21.583Zm.167,1.745a.5.5,0,0,0-.5.866l.389.225a.494.494,0,0,0,.25.067.5.5,0,0,0,.25-.933Zm-1.412,1.778a.5.5,0,0,0-.867.5l.225.391a.5.5,0,0,0,.433.25.488.488,0,0,0,.249-.067.5.5,0,0,0,.185-.682Zm-2.612.334a.5.5,0,0,0-.5.5v.451a.5.5,0,0,0,1,0V25.94A.5.5,0,0,0,37.247,25.44Zm-2.613-7.379a.5.5,0,0,0,.432.249.491.491,0,0,0,.25-.067.5.5,0,0,0,.183-.683l-.226-.391a.5.5,0,0,0-.865.5ZM44.5,37.7a.5.5,0,0,1-.5.5H41.72l-.009,0-.036,0H4a.5.5,0,0,1-.5-.5.5.5,0,0,1,.5-.5h.966l.871-2.781c0-.015.017-.026.023-.041s0-.028.012-.042.017-.012.023-.021a.489.489,0,0,1,.2-.193.217.217,0,0,1,.024-.007.492.492,0,0,1,.25-.033c.013,0,.025-.007.037,0a.542.542,0,0,0,.5-.539.5.5,0,0,0-.246-.435.461.461,0,0,1-.063-.054.219.219,0,0,1-.025-.02l-.008-.009a.475.475,0,0,1-.086-.11.186.186,0,0,1-.036-.061l0-.021a.643.643,0,0,1-.017-.076.411.411,0,0,1-.018-.083c0-.016.007-.027.008-.042s.008-.035.011-.054,0-.036.011-.054c-.01-.01,0-.01.01-.02l.67-2.14.02-.08c.01-.02.01-.04.03-.06a.086.086,0,0,1,.03-.06.525.525,0,0,1,.23-.19.142.142,0,0,1,.06-.02c.01,0,.03-.01.04-.01l.09-.01,10.8-1.86V22.556c0-.011-.006-.019-.006-.03a.49.49,0,0,1,.084-.261l.032-.064.03-.03.89-1.56,0-.007V20.03a4.575,4.575,0,0,0-.252-1.477l-.444-1.278h-7.23l-.442,1.275a4.468,4.468,0,0,0-.25,1.475v7.594a.5.5,0,0,1-1,0V20.025a5.464,5.464,0,0,1,.3-1.8l1.705-4.914a.993.993,0,0,1-.907-.981V11.109a1,1,0,0,1,1-1h6.408a1,1,0,0,1,1,1v1.217a.993.993,0,0,1-.908.981l1.708,4.919a5.68,5.68,0,0,1,.208.814l0-.009.549-.958V14.458a.5.5,0,0,1,.5-.5c.007,0,.013,0,.02,0H32.77a.5.5,0,0,1,.5.5v3.59l2.43,4.23a.42.42,0,0,1,.07.24v9.65h3.437l1.32-2.767a.5.5,0,0,1,.9.43l-1.115,2.337H42.67a.5.5,0,0,1,.5.5v1.7a.5.5,0,0,1-.5.5h-.165l-.241,2.33H44A.5.5,0,0,1,44.5,37.7ZM11.939,12.326h6.408v0h0V11.109H11.939Zm6.472,3.949-1.024-2.949H12.9l-1.024,2.949ZM41.5,34.871H34.78l.23,2.33h6.249Zm-11.65-12.6,2.06-3.58H21.7l-1.285,2.221-.006.012c-.011.028-.029.048-.039.077l-.58,1.02,0,0h7.824a.5.5,0,0,1,0,1H19.42V37.2H29.78V22.521A.475.475,0,0,1,29.85,22.271ZM13.439,32.321a.6.6,0,1,0,.6.6A.6.6,0,0,0,13.439,32.321Zm20.671.85v.7h8.06v-.7Zm-1.84-18.21H21.909v2.73H32.27ZM6.015,37.2H18.42v-4.88l-3.814-.489a1.6,1.6,0,1,1-2.018-.261l-4.618-.6L7.492,32.5a1.5,1.5,0,0,1,.422,1.044,1.542,1.542,0,0,1-1.225,1.507Z"></path></g></g>
</svg>
</g></svg></svg>